<?xml version="1.0" encoding="UTF-8" standalone="no"?>
<!-- Created with Inkscape (http://www.inkscape.org/) -->

<svg
   xmlns:dc="http://purl.org/dc/elements/1.1/"
   xmlns:cc="http://creativecommons.org/ns#"
   xmlns:rdf="http://www.w3.org/1999/02/22-rdf-syntax-ns#"
   xmlns:svg="http://www.w3.org/2000/svg"
   xmlns="http://www.w3.org/2000/svg"
   xmlns:sodipodi="http://sodipodi.sourceforge.net/DTD/sodipodi-0.dtd"
   xmlns:inkscape="http://www.inkscape.org/namespaces/inkscape"
   width="49.278172mm"
   height="8.2820463mm"
   viewBox="0 0 174.60769 29.345833"
   id="svg4460"
   version="1.1"
   inkscape:version="0.91 r13725"
   sodipodi:docname="InformedAmber2.svg">
  <defs
     id="defs4462">
    <clipPath
       clipPathUnits="userSpaceOnUse"
       id="clipPath3499">
      <rect
         style="fill:#800000;fill-opacity:1;stroke:none;stroke-opacity:1"
         id="rect3501"
         width="24.000504"
         height="31.73221"
         x="78.766754"
         y="-0.77560467" />
    </clipPath>
  </defs>
  <sodipodi:namedview
     id="base"
     pagecolor="#ffffff"
     bordercolor="#666666"
     borderopacity="1.0"
     inkscape:pageopacity="0.0"
     inkscape:pageshadow="2"
     inkscape:zoom="6.2082029"
     inkscape:cx="87.303847"
     inkscape:cy="14.672917"
     inkscape:document-units="px"
     inkscape:current-layer="layer5"
     showgrid="false"
     fit-margin-top="0"
     fit-margin-left="0"
     fit-margin-right="0"
     fit-margin-bottom="0"
     inkscape:window-width="1440"
     inkscape:window-height="900"
     inkscape:window-x="-8"
     inkscape:window-y="-8"
     inkscape:window-maximized="1" />
  <metadata
     id="metadata4465">
    <rdf:RDF>
      <cc:Work
         rdf:about="">
        <dc:format>image/svg+xml</dc:format>
        <dc:type
           rdf:resource="http://purl.org/dc/dcmitype/StillImage" />
        <dc:title></dc:title>
      </cc:Work>
    </rdf:RDF>
  </metadata>
  <g
     inkscape:label="Layer 1"
     inkscape:groupmode="layer"
     id="layer1"
     transform="translate(-28.979008,-40.48122)"
     style="display:none">
    <text
       xml:space="preserve"
       style="font-style:normal;font-weight:normal;font-size:51.78610229px;line-height:125%;font-family:sans-serif;letter-spacing:0px;word-spacing:0px;display:inline;fill:#ffc107;fill-opacity:1;stroke:none;stroke-width:1px;stroke-linecap:butt;stroke-linejoin:miter;stroke-opacity:1"
       x="26.750425"
       y="67.110428"
       id="text3376-7"
       sodipodi:linespacing="125%"><tspan
         sodipodi:role="line"
         id="tspan3378-5"
         x="26.750425"
         y="67.110428"
         style="font-style:normal;font-variant:normal;font-weight:normal;font-stretch:normal;font-size:35.60294342px;font-family:'Nirmala UI';-inkscape-font-specification:'Nirmala UI';fill:#ffc107;fill-opacity:1"><tspan
   style="fill:#ffffff"
   id="tspan4384">INFO</tspan>R<tspan
   style="fill:#ffffff;fill-opacity:1"
   id="tspan4331-7">MED</tspan></tspan></text>
    <text
       xml:space="preserve"
       style="font-style:normal;font-weight:normal;font-size:43.01244736px;line-height:125%;font-family:sans-serif;letter-spacing:0px;word-spacing:0px;display:inline;fill:#ffc107;fill-opacity:1;stroke:none;stroke-width:1px;stroke-linecap:butt;stroke-linejoin:miter;stroke-opacity:1"
       x="106.0229"
       y="74.852402"
       id="text3397-2"
       sodipodi:linespacing="125%"
       transform="scale(1.1157957,0.89622142)"><tspan
         sodipodi:role="line"
         id="tspan3399-2"
         x="106.0229"
         y="74.852402"
         style="font-style:normal;font-variant:normal;font-weight:normal;font-stretch:normal;font-size:14.78552818px;font-family:'Nirmala UI';-inkscape-font-specification:'Nirmala UI';fill:#ffc107;fill-opacity:1">X</tspan></text>
  </g>
  <g
     inkscape:groupmode="layer"
     id="layer2"
     inkscape:label="Layer 2"
     style="display:none">
    <path
       style="font-style:normal;font-weight:normal;font-size:51.78610229px;line-height:125%;font-family:sans-serif;letter-spacing:0px;word-spacing:0px;display:inline;fill:#ffc107;fill-opacity:1;stroke:none;stroke-width:1px;stroke-linecap:butt;stroke-linejoin:miter;stroke-opacity:1"
       d="m 65.6875,1.9023438 c -3.731819,0 -6.68042,1.1945942 -8.847656,3.5820312 -2.167237,2.387437 -3.251953,5.585736 -3.251953,9.595703 0,3.731819 1.060762,6.762308 3.18164,9.091797 2.132468,2.329489 4.967156,3.494141 8.501953,3.494141 3.615924,0 6.500603,-1.180664 8.65625,-3.544922 2.155647,-2.364258 3.234375,-5.580523 3.234375,-9.648438 0,-3.743408 -1.054773,-6.7738967 -3.164062,-9.0917966 -2.0977,-2.3179 -4.868466,-3.4785156 -8.310547,-3.4785156 z m -63.9394531,0.4179687 0,24.9296875 2.921875,0 0,-24.9296875 -2.921875,0 z m 9.4570311,0 0,24.9296875 2.921875,0 0,-18.0097656 c 0,-1.7500145 -0.04596,-2.8926643 -0.138672,-3.4257813 l 0.103516,0 c 0.208611,0.5447065 0.474322,1.0661047 0.798828,1.5644531 L 27.720703,27.25 l 3.582031,0 0,-24.9296875 -2.921875,0 0,17.5585935 c 0,1.726836 0.05793,2.94942 0.173829,3.667969 l -0.06836,0 C 28.335665,23.245548 28.000043,22.688218 27.478516,21.876953 L 14.996094,2.3203125 l -3.791016,0 z m 26.632813,0 0,24.9296875 2.921875,0 0,-11.039062 9.003906,0 0,-2.625 -9.003906,0 0,-8.6230474 9.734375,0 0,-2.6425781 -12.65625,0 z m 44.226562,0 0,24.9296875 2.919922,0 0,-10.605469 2.398437,0 c 0.544707,0 1.032127,0.06991 1.460938,0.208985 0.440401,0.127484 0.845933,0.337215 1.216797,0.626953 0.178577,0.135286 0.35382,0.291656 0.527344,0.464843 l -0.04297,0 1.535156,1.988282 c 0.06886,0.111627 0.13545,0.209968 0.205078,0.328125 l 1.560547,2.611328 -3.605469,4.349609 1.658204,0 2.5625,-3.320312 1.998046,3.347656 3.476563,0 -3.449219,-5.525391 2.984375,-3.779297 -1.554687,0 -2.080078,2.738282 -0.578126,-0.925782 c -0.336095,-0.544706 -0.641773,-1.020148 -0.919921,-1.425781 -0.266559,-0.417222 -0.540212,-0.788775 -0.81836,-1.113281 -0.278148,-0.324506 -0.573802,-0.602194 -0.886719,-0.833984 -0.301326,-0.24338 -0.658949,-0.4591 -1.076171,-0.644532 l 0,-0.06836 c 0.846033,-0.2202 1.605152,-0.527832 2.277343,-0.921875 0.683781,-0.405632 1.263112,-0.893052 1.738282,-1.460938 0.486759,-0.567885 0.856359,-1.211138 1.111328,-1.929687 0.266558,-0.730138 0.40039,-1.529225 0.40039,-2.3984375 0,-1.112592 -0.191765,-2.0794893 -0.574218,-2.9023437 C 96.127312,5.2241498 95.593937,4.5289522 94.910156,3.9726562 94.237965,3.4163603 93.438879,3.0048397 92.511719,2.7382812 91.596148,2.4601333 90.593319,2.3203125 89.503906,2.3203125 l -7.439453,0 z m 21.277347,0 0,24.9296875 2.8164,0 0,-16.689453 c 0,-2.2599526 -0.0459,-3.8880688 -0.13867,-4.8847658 l 0.0703,0 c 0.25497,1.1473605 0.50272,1.9983916 0.7461,2.5546876 L 115.33789,27.25 l 1.42578,0 8.51758,-19.1582031 c 0.2202,-0.486759 0.4699,-1.2918342 0.74805,-2.4160157 l 0.0684,0 c -0.16226,1.9122675 -0.24219,3.5284064 -0.24219,4.8496098 l 0,16.724609 2.90234,0 0,-24.9296875 -3.65039,0 -7.80469,17.3144535 c -0.30132,0.672191 -0.70282,1.692986 -1.20117,3.060546 l -0.10351,0 c -0.17385,-0.660601 -0.55542,-1.657441 -1.14649,-2.990234 l -7.65039,-17.3847655 -3.85937,0 z m 31.98828,0 0,24.9296875 13.21094,0 0,-2.642578 -10.29102,0 0,-8.726563 9.00586,0 0,-2.625 -9.00586,0 0,-8.2929684 9.73438,0 0,-2.6425781 -12.6543,0 z m 18.00976,0 0,24.9296875 6.60547,0 c 4.0911,0 7.35332,-1.164651 9.78711,-3.494141 2.44539,-2.341079 3.66797,-5.435489 3.66797,-9.283203 0,-8.1010601 -4.39094,-12.1523435 -13.17578,-12.1523435 l -6.88477,0 z M 65.480469,4.5449219 c 2.688764,0 4.796358,0.89894 6.326172,2.6953125 1.529814,1.7963724 2.294921,4.3394416 2.294921,7.6308596 0,3.210291 -0.787109,5.709357 -2.363281,7.49414 -1.576172,1.784783 -3.731675,2.675782 -6.466797,2.675782 -2.561279,0 -4.642836,-0.932919 -6.242187,-2.798828 -1.587762,-1.877499 -2.380859,-4.350658 -2.380859,-7.421876 0,-3.071217 0.817052,-5.5523173 2.451171,-7.4414058 1.63412,-1.8890884 3.761633,-2.8339843 6.38086,-2.8339843 z m 19.503906,0.4179687 3.998047,0 c 1.634119,0 2.880658,0.3775419 3.738281,1.1308594 0.869213,0.741728 1.304688,1.7785356 1.304688,3.1113281 0,0.741728 -0.127844,1.4129709 -0.382813,2.0156249 -0.254969,0.591065 -0.608556,1.09645 -1.060547,1.513672 -0.45199,0.405632 -0.991354,0.7173 -1.617187,0.9375 -0.614244,0.2202 -1.285487,0.330078 -2.015625,0.330078 l -3.964844,0 0,-9.0390624 z m 71.275395,0 3.89453,0 c 6.79144,0 10.1875,3.1923106 10.1875,9.5781254 0,3.210291 -0.91092,5.691391 -2.73047,7.441406 -1.81955,1.750014 -4.36262,2.625 -7.63086,2.625 l -3.7207,0 0,-19.6445314 z"
       id="text3376-7-8"
       inkscape:connector-curvature="0" />
  </g>
  <g
     inkscape:groupmode="layer"
     id="layer4"
     inkscape:label="Layer 3"
     style="display:inline">
    <path
       style="font-style:normal;font-weight:normal;font-size:51.78610229px;line-height:125%;font-family:sans-serif;letter-spacing:0px;word-spacing:0px;display:inline;fill:#ffffff;fill-opacity:1;stroke:none;stroke-width:1px;stroke-linecap:butt;stroke-linejoin:miter;stroke-opacity:1"
       d="m 66.150781,1.7910808 c -3.731819,0 -6.68042,1.194594 -8.847656,3.582031 -2.167237,2.387437 -3.251953,5.5857362 -3.251953,9.5957032 0,3.731819 1.060762,6.762308 3.18164,9.091797 2.132468,2.329489 4.967156,3.494141 8.501953,3.494141 3.615925,0 6.500605,-1.180664 8.656255,-3.544922 2.15564,-2.364258 3.23437,-5.580523 3.23437,-9.648438 0,-3.743408 -1.05477,-6.7738962 -3.16406,-9.0917962 -2.0977,-2.3179 -4.86847,-3.478516 -8.310549,-3.478516 z m -63.9394532,0.417969 0,24.9296872 2.921875,0 0,-24.9296872 -2.921875,0 z m 9.4570312,0 0,24.9296872 2.921875,0 0,-18.0097652 c 0,-1.750015 -0.04596,-2.892664 -0.138672,-3.425781 l 0.103516,0 c 0.208611,0.544706 0.474322,1.066104 0.798828,1.564453 l 12.830078,19.8710932 3.582031,0 0,-24.9296872 -2.921875,0 0,17.5585932 c 0,1.726836 0.05793,2.94942 0.173829,3.667969 l -0.06836,0 C 28.798946,23.134285 28.463324,22.576955 27.941797,21.76569 L 15.459375,2.2090498 l -3.791016,0 z m 26.632813,0 0,24.9296872 2.921875,0 0,-11.039062 9.003906,0 0,-2.625 -9.003906,0 0,-8.6230472 9.734375,0 0,-2.642578 -12.65625,0 z m 44.226558,0 0,24.9296872 2.91993,0 0,-10.605469 2.39843,0 c 0.54471,0 1.03213,0.06991 1.46094,0.208985 0.4404,0.127484 0.84593,0.337215 1.2168,0.626953 0.17858,0.135286 0.35382,0.291656 0.52734,0.464843 l -0.043,0 1.53516,1.988282 c 0.0689,0.111627 0.13545,0.209968 0.20508,0.328125 l 1.56054,2.611328 -3.60547,4.349609 1.65821,0 2.5625,-3.320312 1.99804,3.347656 3.47657,0 -3.44922,-5.525391 2.98437,-3.779297 -1.55468,0 -2.08008,2.738282 -0.57813,-0.925782 c -0.33609,-0.544706 -0.64177,-1.020148 -0.91992,-1.425781 -0.26656,-0.417222 -0.54021,-0.788775 -0.81836,-1.113281 -0.27815,-0.324506 -0.5738,-0.602194 -0.88672,-0.833984 -0.30132,-0.24338 -0.65895,-0.4591 -1.07617,-0.644532 l 0,-0.06836 c 0.84603,-0.2202 1.60515,-0.527832 2.27734,-0.921875 0.68379,-0.405632 1.26312,-0.893052 1.73829,-1.460938 0.48676,-0.567885 0.85636,-1.211138 1.11132,-1.929687 0.26656,-0.730138 0.40039,-1.5292252 0.40039,-2.3984372 0,-1.112592 -0.19176,-2.079489 -0.57421,-2.902344 -0.38246,-0.834443 -0.91583,-1.52964 -1.59961,-2.085936 -0.67219,-0.556296 -1.47128,-0.967817 -2.39844,-1.234375 -0.91557,-0.278148 -1.9184,-0.417969 -3.00781,-0.417969 l -7.43946,0 z m 21.27735,0 0,24.9296872 2.8164,0 0,-16.689453 c 0,-2.2599522 -0.0459,-3.8880682 -0.13867,-4.8847652 l 0.0703,0 c 0.25497,1.14736 0.50272,1.998391 0.7461,2.554687 l 8.50196,19.0195312 1.42578,0 8.51758,-19.1582032 c 0.2202,-0.486759 0.4699,-1.291834 0.74805,-2.416015 l 0.0684,0 c -0.16226,1.912267 -0.24219,3.528406 -0.24219,4.8496092 l 0,16.724609 2.90234,0 0,-24.9296872 -3.65039,0 -7.80469,17.3144532 c -0.30132,0.672191 -0.70282,1.692986 -1.20117,3.060546 l -0.10351,0 c -0.17385,-0.660601 -0.55542,-1.657441 -1.14649,-2.990234 l -7.65039,-17.3847652 -3.85937,0 z m 31.98828,0 0,24.9296872 13.21094,0 0,-2.642578 -10.29102,0 0,-8.726563 9.00586,0 0,-2.625 -9.00586,0 0,-8.2929682 9.73438,0 0,-2.642578 -12.6543,0 z m 18.00976,0 0,24.9296872 6.60547,0 c 4.0911,0 7.35332,-1.164651 9.78711,-3.494141 2.44539,-2.341079 3.66797,-5.435489 3.66797,-9.283203 0,-8.1010602 -4.39094,-12.1523432 -13.17578,-12.1523432 l -6.88477,0 z m -87.85937,2.224609 c 2.68876,0 4.79636,0.89894 6.32617,2.695313 1.52982,1.796372 2.29492,4.3394412 2.29492,7.6308592 0,3.210291 -0.78711,5.709357 -2.36328,7.49414 -1.57617,1.784783 -3.73167,2.675782 -6.466795,2.675782 -2.561279,0 -4.642836,-0.932919 -6.242187,-2.798828 -1.587762,-1.877499 -2.380859,-4.350658 -2.380859,-7.421876 0,-3.071217 0.817052,-5.5523172 2.451171,-7.4414052 1.63412,-1.889089 3.761633,-2.833985 6.38086,-2.833985 z m 19.50391,0.417969 3.99804,0 c 1.63412,0 2.88066,0.377542 3.73828,1.130859 0.86922,0.741728 1.30469,1.778536 1.30469,3.111329 0,0.741728 -0.12784,1.4129702 -0.38281,2.0156242 -0.25497,0.591065 -0.60856,1.09645 -1.06055,1.513672 -0.45199,0.405632 -0.99135,0.7173 -1.61718,0.9375 -0.61425,0.2202 -1.28549,0.330078 -2.01563,0.330078 l -3.96484,0 0,-9.0390622 z m 71.27539,0 3.89453,0 c 6.79144,0 10.1875,3.192311 10.1875,9.5781252 0,3.210291 -0.91092,5.691391 -2.73047,7.441406 -1.81955,1.750014 -4.36262,2.625 -7.63086,2.625 l -3.7207,0 0,-19.6445312 z"
       id="text3376-7-8-7"
       inkscape:connector-curvature="0" />
  </g>
  <g
     inkscape:groupmode="layer"
     id="layer5"
     inkscape:label="Layer 4"
     style="display:inline">
    <path
       style="font-style:normal;font-weight:normal;font-size:51.78610229px;line-height:125%;font-family:sans-serif;letter-spacing:0px;word-spacing:0px;display:inline;fill:#ffc107;fill-opacity:1;stroke:none;stroke-width:1px;stroke-linecap:butt;stroke-linejoin:miter;stroke-opacity:1"
       d="m 66.146707,1.788527 c -3.731819,0 -6.68042,1.194594 -8.847656,3.582031 -2.167237,2.387437 -3.251953,5.585736 -3.251953,9.595703 0,3.731819 1.060762,6.762308 3.18164,9.091797 2.132468,2.329489 4.967156,3.494141 8.501953,3.494141 3.615924,0 6.500603,-1.180664 8.65625,-3.544922 2.155647,-2.364258 3.234375,-5.580523 3.234375,-9.648438 0,-3.743408 -1.054773,-6.773897 -3.164062,-9.091797 -2.0977,-2.3179 -4.868466,-3.478515 -8.310547,-3.478515 z m -63.9394534,0.417968 0,24.929688 2.921875,0 0,-24.929688 -2.921875,0 z m 9.4570314,0 0,24.929688 2.921875,0 0,-18.009766 c 0,-1.750014 -0.04596,-2.892664 -0.138672,-3.425781 l 0.103516,0 c 0.208611,0.544706 0.474322,1.066105 0.798828,1.564453 l 12.830078,19.871094 3.582031,0 0,-24.929688 -2.921875,0 0,17.558594 c 0,1.726836 0.05793,2.94942 0.173829,3.667969 l -0.06836,0 C 28.794872,23.131731 28.45925,22.574401 27.937723,21.763136 L 15.455301,2.206495 l -3.791016,0 z m 26.632813,0 0,24.929688 2.921875,0 0,-11.039062 9.003906,0 0,-2.625 -9.003906,0 0,-8.623048 9.734375,0 0,-2.642578 -12.65625,0 z m 44.226562,0 0,24.929688 2.919922,0 0,-10.605469 2.398437,0 c 0.544707,0 1.032127,0.06991 1.460938,0.208985 0.440401,0.127484 0.845933,0.337215 1.216797,0.626953 0.178577,0.135286 0.35382,0.291656 0.527344,0.464843 l -0.04297,0 1.535156,1.988282 c 0.06886,0.111627 0.13545,0.209968 0.205078,0.328125 l 1.560547,2.611328 -3.605469,4.349609 1.658204,0 2.5625,-3.320312 1.998046,3.347656 3.47656,0 -3.449216,-5.525391 2.984379,-3.779297 -1.55469,0 -2.080079,2.738282 -0.578126,-0.925782 c -0.336095,-0.544706 -0.641773,-1.020148 -0.919921,-1.425781 -0.266559,-0.417222 -0.540212,-0.788775 -0.81836,-1.113281 -0.278148,-0.324506 -0.573802,-0.602194 -0.886719,-0.833984 -0.301326,-0.24338 -0.658949,-0.4591 -1.076171,-0.644532 l 0,-0.06836 c 0.846033,-0.2202 1.605152,-0.527832 2.277343,-0.921875 0.683781,-0.405632 1.263112,-0.893052 1.738282,-1.460938 0.486759,-0.567885 0.856359,-1.211138 1.111328,-1.929687 0.266558,-0.730138 0.40039,-1.529225 0.40039,-2.398438 0,-1.112592 -0.191765,-2.079489 -0.574218,-2.902343 C 96.586519,5.110333 96.053144,4.415135 95.369363,3.858839 94.697172,3.302543 93.898086,2.891022 92.970926,2.624464 92.055355,2.346316 91.052526,2.206495 89.963113,2.206495 l -7.439453,0 z m 21.27734,0 0,24.929688 2.8164,0 0,-16.689453 c 0,-2.259953 -0.0459,-3.888069 -0.13867,-4.884766 l 0.0703,0 c 0.25497,1.14736 0.50272,1.998392 0.7461,2.554688 l 8.50196,19.019531 1.42578,0 8.51758,-19.158203 c 0.2202,-0.486759 0.4699,-1.291835 0.74805,-2.416016 l 0.0684,0 c -0.16226,1.912267 -0.24219,3.528406 -0.24219,4.84961 l 0,16.724609 2.90234,0 0,-24.929688 -3.65039,0 -7.80469,17.314454 c -0.30132,0.672191 -0.70282,1.692986 -1.20117,3.060546 l -0.10351,0 c -0.17385,-0.660601 -0.55542,-1.657441 -1.14649,-2.990234 l -7.65039,-17.384766 -3.85937,0 z m 31.98828,0 0,24.929688 13.21094,0 0,-2.642578 -10.29102,0 0,-8.726563 9.00586,0 0,-2.625 -9.00586,0 0,-8.292969 9.73438,0 0,-2.642578 -12.6543,0 z m 18.00976,0 0,24.929688 6.60547,0 c 4.0911,0 7.35332,-1.164651 9.78711,-3.494141 2.44539,-2.341079 3.66797,-5.435489 3.66797,-9.283203 0,-8.10106 -4.39094,-12.152344 -13.17578,-12.152344 l -6.88477,0 z m -87.859364,2.22461 c 2.688764,0 4.796358,0.89894 6.326172,2.695312 1.529814,1.796373 2.294921,4.339442 2.294921,7.63086 0,3.210291 -0.787109,5.709357 -2.363281,7.49414 -1.576172,1.784783 -3.731675,2.675782 -6.466797,2.675782 -2.561279,0 -4.642836,-0.932919 -6.242187,-2.798828 -1.587762,-1.877499 -2.380859,-4.350658 -2.380859,-7.421876 0,-3.071217 0.817052,-5.552318 2.451171,-7.441406 1.63412,-1.889088 3.761633,-2.833984 6.38086,-2.833984 z m 19.503906,0.417968 3.998047,0 c 1.634119,0 2.880658,0.377542 3.738281,1.13086 0.869213,0.741728 1.304688,1.778535 1.304688,3.111328 0,0.741728 -0.127844,1.412971 -0.382813,2.015625 -0.254969,0.591065 -0.608556,1.09645 -1.060547,1.513672 -0.45199,0.405632 -0.991354,0.7173 -1.617187,0.9375 -0.614244,0.2202 -1.285487,0.330078 -2.015625,0.330078 l -3.964844,0 0,-9.039063 z m 71.275388,0 3.89453,0 c 6.79144,0 10.1875,3.192311 10.1875,9.578126 0,3.210291 -0.91092,5.691391 -2.73047,7.441406 -1.81955,1.750014 -4.36262,2.625 -7.63086,2.625 l -3.7207,0 0,-19.644532 z"
       id="text3376-7-8-2"
       inkscape:connector-curvature="0"
       clip-path="url(#clipPath3499)" />
  </g>
  <text
     xml:space="preserve"
     style="font-style:normal;font-weight:normal;font-size:40px;line-height:125%;font-family:sans-serif;letter-spacing:0px;word-spacing:0px;fill:#000000;fill-opacity:1;stroke:none;stroke-width:1px;stroke-linecap:butt;stroke-linejoin:miter;stroke-opacity:1"
     x="79.967392"
     y="16.873856"
     id="text3400"
     sodipodi:linespacing="125%"><tspan
       sodipodi:role="line"
       id="tspan3402"
       x="79.967392"
       y="16.873856"></tspan></text>
</svg>
